PathFileType	4	(X/Y/Z)	s01c0201.trc
DataRate	CameraRate	NumFrames	NumMarkers	Units	OrigDataRate	OrigDataStartFrame	OrigNumFrames
200	200	4	48	mm	200	750	2000
Frame#	Time	racr			lacr			c7			jug			rlel			rdr			llel			ldr			s2			lic			ric			lasi			rasi			rpsi			lpsi			rgt			lgt			rth1			rth2			rth3			rth4			rlfc			rsh1			rsh2			rsh3			rsh4			rlmal			rmmal			rcal			rtoe			rmt5			lth1			lth2			lth4			lth3			llfc			lsh1			lsh2			lsh3			lsh4			llmal			lmmal			lcal			ltoe			lmt5			SBIKE			LBIKE			RBIKE			
		X1	Y1	Z1	X2	Y2	Z2	X3	Y3	Z3	X4	Y4	Z4	X5	Y5	Z5	X6	Y6	Z6	X7	Y7	Z7	X8	Y8	Z8	X9	Y9	Z9	X10	Y10	Z10	X11	Y11	Z11	X12	Y12	Z12	X13	Y13	Z13	X14	Y14	Z14	X15	Y15	Z15	X16	Y16	Z16	X17	Y17	Z17	X18	Y18	Z18	X19	Y19	Z19	X20	Y20	Z20	X21	Y21	Z21	X22	Y22	Z22	X23	Y23	Z23	X24	Y24	Z24	X25	Y25	Z25	X26	Y26	Z26	X27	Y27	Z27	X28	Y28	Z28	X29	Y29	Z29	X30	Y30	Z30	X31	Y31	Z31	X32	Y32	Z32	X33	Y33	Z33	X34	Y34	Z34	X35	Y35	Z35	X36	Y36	Z36	X37	Y37	Z37	X38	Y38	Z38	X39	Y39	Z39	X40	Y40	Z40	X41	Y41	Z41	X42	Y42	Z42	X43	Y43	Z43	X44	Y44	Z44	X45	Y45	Z45	X46	Y46	Z46	X47	Y47	Z47	X48	Y48	Z48	
750	3.7500	500.207889	1256.537365	-75.648514	521.531273	1237.101290	-436.954997	485.930888	1357.431508	-260.173499	472.037176	1189.652909	-254.095319	464.755220	990.191455	38.379439	663.979270	882.104342	-68.458949	469.027296	988.970228	-582.703776	653.245156	883.308437	-464.217445	-39.905351	1143.361189	-275.633759	131.367130	1156.521330	-445.207619	101.323779	1159.887029	-111.638746	136.604877	1110.327164	-417.712835	137.188070	1115.329598	-136.388369	-14.172929	1185.324260	-225.417492	-14.218689	1187.048211	-329.714092	61.485277	1036.612478	-87.165014	91.235206	1033.845207	-467.335849	140.699270	924.763718	-64.384980	193.415253	860.855172	-68.140065	245.878919	787.827411	-77.623686	238.670050	893.649255	-78.031691	294.363112	682.401630	-95.032366	264.326961	569.075813	-62.292709	258.114194	484.500625	-67.559970	243.418342	397.433498	-78.657706	307.465508	480.599338	-102.609700	212.996072	276.925249	-100.628888	262.393166	291.636336	-173.780520	171.728638	256.534671	-152.796197	434.700455	194.070198	-139.926722	327.403676	176.809316	-69.989145	189.518546	966.424563	-464.213344	277.868273	954.266975	-468.138041	287.050005	1006.867399	-457.130531	360.197533	932.457048	-453.273613	448.429798	861.742071	-422.516601	354.906810	803.264935	-453.404692	290.612382	746.448433	-443.535399	224.748293	693.282992	-428.233859	328.356110	709.747276	-410.960251	128.955998	614.831134	-411.275556	157.537783	606.829446	-328.784704	71.193512	623.895452	-364.811471	252.523623	412.320383	-380.669052	162.668007	474.583221	-442.478000	-228.078141	891.494118	-253.295805	-21.350186	80.398087	-454.173804	-21.368098	80.250946	-54.068907	
751	3.7550	501.914079	1257.497102	-78.124634	520.577455	1238.673800	-439.500317	485.956989	1358.551620	-262.612215	472.553327	1190.871587	-256.782566	466.030112	991.849466	37.561266	664.227294	882.412465	-68.724967	467.850308	989.739546	-583.048713	652.807792	883.951133	-464.479083	-39.835991	1143.843029	-273.540806	130.173261	1158.430988	-444.632684	103.349482	1160.162307	-111.088419	136.085432	1111.666671	-417.120228	137.977706	1115.263891	-135.936467	-13.910088	1185.712850	-223.175870	-14.401893	1187.573690	-327.560975	61.486222	1036.083192	-86.172513	90.250893	1036.429938	-466.811792	137.861283	923.598119	-63.173709	189.204370	858.494878	-66.686997	240.201493	784.333132	-75.488709	235.477806	890.532022	-76.516174	287.416522	678.356296	-93.282494	256.881876	565.205369	-60.774558	250.585205	480.644772	-66.135225	235.826409	393.605467	-77.374757	300.149463	476.644968	-100.793800	205.824788	272.986040	-99.855268	254.787883	287.431594	-172.330289	164.677249	254.095500	-151.829140	426.410397	186.346078	-140.027083	318.962131	171.112062	-69.632837	189.539051	970.193415	-463.624752	278.053864	960.053400	-467.985374	286.254199	1012.734871	-456.797811	360.897927	940.077197	-453.578180	450.923113	872.232199	-423.318653	359.053807	813.477466	-454.093944	295.359775	755.354195	-443.434861	230.362677	701.318112	-428.445479	333.422188	719.260459	-411.549844	135.466993	620.603889	-411.189725	164.197050	613.342970	-328.640154	77.464918	628.827248	-364.653741	261.918528	419.818748	-380.262337	171.056208	480.781143	-442.285394	-228.108109	891.539011	-253.124829	-21.353579	80.441032	-454.171379	-21.368525	80.250046	-54.073099	
752	3.7600	503.586781	1258.567652	-80.657296	519.741621	1240.197696	-441.995254	486.042628	1359.561522	-265.035483	473.077171	1191.984650	-259.244617	467.343957	993.446101	36.491386	664.513721	882.750760	-69.149391	466.649178	990.333392	-583.299312	652.402290	884.656575	-464.693683	-39.798429	1144.463519	-271.369804	128.910208	1160.339716	-444.025832	105.298494	1160.499375	-110.790235	135.493616	1113.050180	-416.507923	138.790553	1115.354191	-135.484560	-13.851600	1186.385663	-220.741912	-14.586927	1188.250868	-325.344642	61.510483	1035.642717	-85.065569	89.296063	1038.910927	-466.245725	135.173371	922.698479	-62.033018	185.326450	856.612551	-65.106464	234.897058	781.586886	-73.951484	231.928497	887.811657	-74.784364	280.761121	675.043395	-91.437514	249.772909	561.870160	-59.267888	243.231484	477.316454	-64.779919	228.398143	390.343684	-76.125830	293.122060	473.223746	-99.061038	198.626425	270.286415	-99.152961	246.918553	283.918904	-170.836037	157.575002	252.371911	-151.022176	417.717038	179.071686	-140.089940	310.294863	165.966126	-69.314828	189.471099	973.984747	-463.007361	278.102166	965.691802	-467.793907	285.282618	1018.424391	-456.971389	362.073712	947.381893	-453.054840	453.399612	882.433526	-423.777222	362.893675	822.727675	-453.709295	299.901410	763.936542	-443.373419	235.739413	708.950401	-428.449305	338.604395	728.110898	-412.121882	141.939727	625.691398	-411.111062	170.939666	619.290639	-328.488638	83.927384	632.992989	-364.503037	271.782447	427.256784	-380.283916	179.995445	486.646460	-442.239443	-228.221483	891.634287	-253.104670	-21.353228	80.408376	-454.246089	-21.366123	80.270230	-54.055059	
753	3.7650	505.256992	1259.545155	-83.233373	518.960615	1241.595865	-444.395933	486.177461	1360.480062	-267.491280	473.580612	1192.921391	-261.900021	468.668793	995.029109	35.285759	664.754582	883.058731	-69.619662	465.344344	990.999421	-583.599305	652.000550	885.290019	-464.738320	-39.785463	1145.271577	-269.218232	127.642545	1162.302965	-443.397069	107.297286	1160.725046	-110.258398	134.834794	1114.463895	-415.876179	139.638221	1115.441847	-135.108341	-13.105359	1186.738066	-218.801014	-14.771744	1189.078636	-323.093024	61.595856	1035.575438	-84.076226	88.235210	1041.406749	-465.619080	132.680582	922.266941	-60.762559	181.573938	855.364002	-63.600951	229.902664	779.373577	-72.235712	228.123737	885.588794	-73.601419	274.423637	672.281443	-89.627850	242.788715	559.131219	-57.792948	236.082622	474.643147	-63.363065	221.076221	387.700745	-74.956449	286.290625	470.509389	-97.259384	191.408406	267.868696	-98.626571	238.885137	281.102761	-169.343515	150.316811	251.519929	-150.096998	408.794135	172.206346	-140.215467	301.284984	161.444334	-69.102396	189.266668	977.753762	-462.427669	278.019504	971.134332	-467.529971	284.217353	1024.191438	-457.043028	361.885008	954.721676	-453.905515	455.840700	892.690093	-424.134928	366.104211	832.147780	-453.655740	304.092718	772.335863	-443.376963	240.894989	716.179486	-428.520855	343.536703	736.606200	-412.818271	148.367028	630.051847	-411.046731	177.651298	624.364901	-328.443702	90.513741	636.350202	-364.371916	282.296312	434.443272	-380.502133	188.907422	491.945099	-442.253523	-228.319041	891.633377	-253.050455	-21.359236	80.457943	-454.213573	-21.384046	80.288127	-54.041783	
